HIERARCHY
ROOT Hips
{
	OFFSET -14.64140 90.27770 -84.91600
	CHANNELS 6 Xposition Yposition Zposition Zrotation Xrotation Yrotation
	JOINT Spine
	{
		OFFSET 0.00000 13.20850 -1.60436
		CHANNELS 3 Zrotation Xrotation Yrotation
		JOINT Spine1
		{
			OFFSET 0.00000 8.61716 0.00000
			CHANNELS 3 Zrotation Xrotation Yrotation
			JOINT Spine2
			{
				OFFSET 0.00000 8.61717 0.00000
				CHANNELS 3 Zrotation Xrotation Yrotation
				JOINT Spine3
				{
					OFFSET 0.00000 8.61717 0.00000
					CHANNELS 3 Zrotation Xrotation Yrotation
					JOINT Neck
					{
						OFFSET 0.00000 11.07920 1.10792
						CHANNELS 3 Zrotation Xrotation Yrotation
						JOINT Neck1
						{
							OFFSET 0.00000 7.08032 0.00000
							CHANNELS 3 Zrotation Xrotation Yrotation
							JOINT Head
							{
								OFFSET 0.00000 7.08031 0.00000
								CHANNELS 3 Zrotation Xrotation Yrotation
								End site
								{
									OFFSET 0.00000 0.00000 0.00000
								}
							}
						}
					}
					JOINT RightShoulder
					{
						OFFSET -0.01000 7.91373 5.19711
						CHANNELS 3 Zrotation Xrotation Yrotation
						JOINT RightArm
						{
							OFFSET -18.41580 0.00000 0.00000
							CHANNELS 3 Zrotation Xrotation Yrotation
							JOINT RightForeArm
							{
								OFFSET -29.11090 0.00000 0.00000
								CHANNELS 3 Zrotation Xrotation Yrotation
								JOINT RightHand
								{
									OFFSET -24.65040 0.00000 0.00000
									CHANNELS 3 Zrotation Xrotation Yrotation
									JOINT RightHandThumb1
									{
										OFFSET -5.35114 -0.85590 3.97906
										CHANNELS 3 Zrotation Xrotation Yrotation
										JOINT RightHandThumb2
										{
											OFFSET -4.52789 0.00000 0.00000
											CHANNELS 3 Zrotation Xrotation Yrotation
											JOINT RightHandThumb3
											{
												OFFSET -2.46976 0.00000 0.00000
												CHANNELS 3 Zrotation Xrotation Yrotation
												End site
												{
													OFFSET 0.00000 0.00000 0.00000
												}
											}
										}
									}
									JOINT RightHandIndex1
									{
										OFFSET -14.26970 0.00000 2.88139
										CHANNELS 3 Zrotation Xrotation Yrotation
										JOINT RightHandIndex2
										{
											OFFSET -5.48836 0.00000 0.00000
											CHANNELS 3 Zrotation Xrotation Yrotation
											JOINT RightHandIndex3
											{
												OFFSET -3.01859 0.00000 0.00000
												CHANNELS 3 Zrotation Xrotation Yrotation
												End site
												{
													OFFSET 0.00000 0.00000 0.00000
												}
											}
										}
									}
									JOINT RightHandMiddle1
									{
										OFFSET -14.26970 0.00000 -0.09147
										CHANNELS 3 Zrotation Xrotation Yrotation
										JOINT RightHandMiddle2
										{
											OFFSET -6.17441 0.00000 0.00000
											CHANNELS 3 Zrotation Xrotation Yrotation
											JOINT RightHandMiddle3
											{
												OFFSET -3.56743 0.00000 0.00000
												CHANNELS 3 Zrotation Xrotation Yrotation
												End site
												{
													OFFSET 0.00000 0.00000 0.00000
												}
											}
										}
									}
									JOINT RightHandRing1
									{
										OFFSET -12.69180 0.00000 -3.06433
										CHANNELS 3 Zrotation Xrotation Yrotation
										JOINT RightHandRing2
										{
											OFFSET -5.62556 0.00000 0.00000
											CHANNELS 3 Zrotation Xrotation Yrotation
											JOINT RightHandRing3
											{
												OFFSET -3.56744 0.00000 0.00000
												CHANNELS 3 Zrotation Xrotation Yrotation
												End site
												{
													OFFSET 0.00000 0.00000 0.00000
												}
											}
										}
									}
									JOINT RightHandPinky1
									{
										OFFSET -11.11390 0.00000 -6.03719
										CHANNELS 3 Zrotation Xrotation Yrotation
										JOINT RightHandPinky2
										{
											OFFSET -4.52789 0.00000 0.00000
											CHANNELS 3 Zrotation Xrotation Yrotation
											JOINT RightHandPinky3
											{
												OFFSET -2.46976 0.00000 0.00000
												CHANNELS 3 Zrotation Xrotation Yrotation
												End site
												{
													OFFSET 0.00000 0.00000 0.00000
												}
											}
										}
									}
								}
							}
						}
					}
					JOINT LeftShoulder
					{
						OFFSET 0.01000 7.91373 5.19711
						CHANNELS 3 Zrotation Xrotation Yrotation
						JOINT LeftArm
						{
							OFFSET 18.41580 0.00000 0.00000
							CHANNELS 3 Zrotation Xrotation Yrotation
							JOINT LeftForeArm
							{
								OFFSET 29.11090 0.00000 0.00000
								CHANNELS 3 Zrotation Xrotation Yrotation
								JOINT LeftHand
								{
									OFFSET 24.65040 0.00000 0.00000
									CHANNELS 3 Zrotation Xrotation Yrotation
									JOINT LeftHandThumb1
									{
										OFFSET 5.35114 -0.85590 3.97906
										CHANNELS 3 Zrotation Xrotation Yrotation
										JOINT LeftHandThumb2
										{
											OFFSET 4.52789 0.00000 0.00000
											CHANNELS 3 Zrotation Xrotation Yrotation
											JOINT LeftHandThumb3
											{
												OFFSET 2.46977 0.00000 0.00000
												CHANNELS 3 Zrotation Xrotation Yrotation
												End site
												{
													OFFSET 0.00000 0.00000 0.00000
												}
											}
										}
									}
									JOINT LeftHandIndex1
									{
										OFFSET 14.26970 0.00000 2.88139
										CHANNELS 3 Zrotation Xrotation Yrotation
										JOINT LeftHandIndex2
										{
											OFFSET 5.48836 0.00000 0.00000
											CHANNELS 3 Zrotation Xrotation Yrotation
											JOINT LeftHandIndex3
											{
												OFFSET 3.01859 0.00000 0.00000
												CHANNELS 3 Zrotation Xrotation Yrotation
												End site
												{
													OFFSET 0.00000 0.00000 0.00000
												}
											}
										}
									}
									JOINT LeftHandMiddle1
									{
										OFFSET 14.26970 0.00000 -0.09147
										CHANNELS 3 Zrotation Xrotation Yrotation
										JOINT LeftHandMiddle2
										{
											OFFSET 6.17440 0.00000 0.00000
											CHANNELS 3 Zrotation Xrotation Yrotation
											JOINT LeftHandMiddle3
											{
												OFFSET 3.56744 0.00000 0.00000
												CHANNELS 3 Zrotation Xrotation Yrotation
												End site
												{
													OFFSET 0.00000 0.00000 0.00000
												}
											}
										}
									}
									JOINT LeftHandRing1
									{
										OFFSET 12.69180 0.00000 -3.06433
										CHANNELS 3 Zrotation Xrotation Yrotation
										JOINT LeftHandRing2
										{
											OFFSET 5.62556 0.00000 0.00000
											CHANNELS 3 Zrotation Xrotation Yrotation
											JOINT LeftHandRing3
											{
												OFFSET 3.56744 0.00000 0.00000
												CHANNELS 3 Zrotation Xrotation Yrotation
												End site
												{
													OFFSET 0.00000 0.00000 0.00000
												}
											}
										}
									}
									JOINT LeftHandPinky1
									{
										OFFSET 11.11390 0.00000 -6.03719
										CHANNELS 3 Zrotation Xrotation Yrotation
										JOINT LeftHandPinky2
										{
											OFFSET 4.52789 0.00000 0.00000
											CHANNELS 3 Zrotation Xrotation Yrotation
											JOINT LeftHandPinky3
											{
												OFFSET 2.46976 0.00000 0.00000
												CHANNELS 3 Zrotation Xrotation Yrotation
												End site
												{
													OFFSET 0.00000 0.00000 0.00000
												}
											}
										}
									}
								}
							}
						}
					}
					JOINT pCube4
					{
						OFFSET 0.00000 10.91090 1.10792
						CHANNELS 3 Zrotation Xrotation Yrotation
						End site
						{
							OFFSET 0.00000 0.00000 0.00000
						}
					}
				}
			}
		}
	}
	JOINT RightUpLeg
	{
		OFFSET -9.98441 0.00000 0.00000
		CHANNELS 3 Zrotation Xrotation Yrotation
		JOINT RightLeg
		{
			OFFSET 0.00000 -42.11790 0.00000
			CHANNELS 3 Zrotation Xrotation Yrotation
			JOINT RightFoot
			{
				OFFSET 0.00000 -45.00020 -0.00001
				CHANNELS 3 Zrotation Xrotation Yrotation
				JOINT RightForeFoot
				{
					OFFSET 0.00000 -3.74820 0.00000
					CHANNELS 3 Zrotation Xrotation Yrotation
					JOINT RightToeBase
					{
						OFFSET 0.00000 0.06325 14.43120
						CHANNELS 3 Zrotation Xrotation Yrotation
						End site
						{
							OFFSET 0.00000 0.00000 0.00000
						}
					}
				}
			}
		}
	}
	JOINT LeftUpLeg
	{
		OFFSET 9.98441 0.00000 0.00000
		CHANNELS 3 Zrotation Xrotation Yrotation
		JOINT LeftLeg
		{
			OFFSET 0.00000 -42.11800 0.00000
			CHANNELS 3 Zrotation Xrotation Yrotation
			JOINT LeftFoot
			{
				OFFSET 0.00000 -45.00070 0.00000
				CHANNELS 3 Zrotation Xrotation Yrotation
				JOINT LeftForeFoot
				{
					OFFSET 0.00000 -3.74824 0.00000
					CHANNELS 3 Zrotation Xrotation Yrotation
					JOINT LeftToeBase
					{
						OFFSET 0.00000 0.06325 14.43110
						CHANNELS 3 Zrotation Xrotation Yrotation
						End site
						{
							OFFSET 0.00000 0.00000 0.00000
						}
					}
				}
			}
		}
	}
}
MOTION
Frames: 4
Frame Time: 0.050000
0.004933310124419181 -0.008356993121630225 0.012835917344163226 0.01537057640851048 -0.01741472588201005 0.030964465481057236 -1.2961447312738763 0.7488151620057452 -1.0017223700687858 -0.8992885419395928 3.8436927227906277 0.3777319991668231 -1.2339507220383672 -1.7297127916286306 -0.7694847556332183 0.9329746650196474 0.49229723007318316 -0.7612801405358706 0.8312875495422314 12.426158392322918 -2.641001589580044 0.06197022744724803 -0.6555621114167085 -8.010188090672274 0.9226023649915244 -16.209322326702754 -0.6836500642775888 -4.631160570815766 1.5413075980812752 -15.673974039635594 72.85393195071642 23.05961855286098 3.6434753105999587 2.29074983443673 2.019562372247363 41.44771792918974 21.133169712536585 -0.09578262651025932 -3.8994159372958928 4.5734325217868 -0.09473358714169483 -1.5697733419200033 -0.0275670248980456 -0.015551903256533425 -56.2381428101131 -0.01127824365785286 0.023957699641104974 -56.26188357485216 -38.76427595650292 0.011448348520536703 -0.01809682624538978 -0.03130199469633385 -0.01306293258356749 0.015210237431540572 -0.0073075939730731475 0.025139179209704383 0.006896950341860582 -36.732461021389774 -0.007972943090980995 -0.03577567510168828 0.01003598715914633 -0.023527935519212586 9.869723289645274e-05 -0.014334895011080102 -0.015299379277509288 0.0026449605572823136 -19.749840086864637 -0.01820705176529461 0.03528041423565125 -0.0413274685890877 0.04014764438052489 0.01221097657156185 0.004219987392685581 0.019577468379660512 0.03493940109845487 24.03030533026592 -0.001155830922900707 -0.013889191463299696 28.887610173226296 -0.029861601819838175 0.013447913379547522 28.87736563332254 0.034805807874039155 0.0076278792285787685 3.526506424565406 0.9897283937866389 13.50080713093204 -71.81648236720142 26.431113798108886 -0.2166052658291711 -3.861434756646025 -8.757298137789048 -42.28209382921431 -14.222928140503148 -0.6250569285932894 2.908812293127252 -0.4941889535565392 0.07035102262982394 -8.080815187160534 0.0363893009283963 0.04053892399640306 44.53501650384792 0.03128005298226329 -0.029030789103970164 44.57708025692207 12.484424986184518 0.011020657481850892 0.014626899855205166 -0.023295837310629862 0.01108598625148185 0.04429247865925176 -0.014937176997148862 0.004683070505048849 -0.002757865887901653 11.100222830777643 0.041026596085918424 0.007850483160576965 0.031195206286403755 0.047457635153833826 -0.012781484065718966 -0.020279164606977002 0.02371167883710532 0.04439256050822675 4.749761444228491 -0.029242809597222287 -0.03027367123261796 -0.008130909120757621 0.0495246649163202 0.030819185138298996 0.0012247971710657637 -0.024413694322043357 -0.049585179771302376 -5.591698655552747 -0.04546684675538047 -0.006350300190211501 -6.698324944516457 -0.010582428552737434 0.023435572040718704 -6.696018179970626 0.017580594173772165 0.0302260001545607 0.033585750839083266 -0.03126494539685301 -0.014052888261819243 8.047300529742795 3.513654875141727 -19.203646466139233 -0.03431088460223821 10.369894210440307 0.011554915663694114 -5.654763940581756 -15.62816962095973 3.1749975467768197 0.024582281296191912 -0.006591107093193924 -0.0036488427070679717 -0.0002268963777705473 4.666116913802613 0.014613168427189342 12.423547677346349 -8.281660018380485 6.901230519254354 -0.02951923018830442 46.35167570685971 0.013235800996578628 -4.332472449912503 -14.724080212458109 -3.8315818952580543 -0.023553217378802796 -0.010255813312569684 0.018072052916310154 0.0004890978746441299 -10.771858339140325 0.0017062868030203065 
-0.03881262387597292 0.01352324990613674 0.02898629490263446 -0.0222904686614592 0.0010935149936013844 0.011930678180541358 -1.2099717589322883 0.7744497852189822 -0.9944143344545583 -0.9782529374695947 3.915311258779529 0.39754968701051613 -1.2375536520415187 -1.6717011489077573 -0.761255614645686 0.9802636272455476 0.5078109960487653 -0.7785693175119821 0.8918316075543802 12.36729005034643 -2.888822394356591 0.08566571914106369 -0.7374881270496897 -8.558999176504516 0.997776394656502 -16.37857136556816 -0.6665152665253804 -4.6915113018875925 1.5447637413065578 -15.824821683358065 73.03365808735931 22.580121723178696 3.4431817862890135 2.0117815811470594 1.9725358597081932 41.99168193882579 20.65775568991515 -0.12679123104061968 -3.897113574416924 4.559052598141982 -0.1326655355173778 -1.57021472419863 0.009405046297293796 0.023073141067776564 -56.26359602506625 -0.02233557184398472 0.04431168404023318 -56.26741682587828 -38.76836301057532 0.03547479282949351 0.014423990955271956 0.03691316702043415 0.023248114024776934 0.04029316710284803 0.04772536491698155 -0.04946342711248634 -0.0151388097079261 -36.669923687629144 0.01911683448785579 0.015543833071057212 -0.03243157297076479 -0.007573624365336897 -0.010276150857511428 0.020727373009112003 -0.01097951260901173 0.013867329789653438 -19.73309081024716 0.016032201078245593 0.023634440991316303 0.011328441962914566 -0.016865542555615638 -0.026654002827837562 -0.03391530292285132 -0.019670578254770404 -0.02751385688560057 24.019830829336605 -0.012054868877172902 0.0013136943946274848 28.81961883364251 -0.008046997199733818 0.04042463547105295 28.873677249921162 -0.04585025109028697 0.01311010126945678 3.519553437607377 0.978200432534273 13.52265314620787 -72.03932338056411 26.889540132688776 -0.05850527765108361 -2.200976035829818 -8.991940263394023 -42.73989941051809 -13.98297567555746 -0.7542729770901937 3.156260481386044 -0.4564844033398088 0.11285412461530162 -8.12838196857703 0.010147433922592753 -0.04226306537846054 44.57063883347403 -0.023468085212350425 -0.04514017061209326 44.529253529708086 12.48280540711054 -0.04579425455551444 0.006014212130632681 -0.016504216791098137 -0.026668533738412888 -0.04477484512712228 0.009125132163392122 -0.023749379149734174 0.028673683260230613 11.108077748631674 -0.004010269262220002 -0.028818256258650875 0.04499893469300527 0.016247245738904282 0.025107076670223032 0.010491615232982587 0.025466439882220672 0.00316670535867107 4.759336155551981 0.024190069654182526 -0.023546130426274004 0.0463469280434279 -0.039136724413996654 0.006241030916228918 0.0013354930792663377 -0.018116059363323035 0.026868976047623887 -5.611002442000215 0.039901327884833374 0.02333826910852244 -6.69588598733845 0.023616964123120757 -0.018277100567523755 -6.7156706031535665 -0.01674839096521858 -0.025911213075365425 0.007022571882157487 -0.04154373748116798 -0.041278355316765845 8.031031160026966 3.5026326455864845 -19.216791431188792 -0.017432023554393085 10.428898483042945 0.012776366457010229 -5.632309582500244 -15.694472328072735 3.1433977655813434 0.048438748628754566 0.03850228252168882 0.02583997265102072 0.023181482815797853 4.67598310300427 -0.04985972162033411 12.444065880424215 -8.189926821388825 6.91023233077495 -0.031836190613243526 46.35555377716119 0.00248066341354374 -4.291843010959167 -14.75393721823627 -3.8715561285527764 -0.007324833066417787 -0.029637782449795747 -0.012993945740529374 0.04686941677005531 -10.778767485010661 -0.015194709316073033 
0.007502528048465899 -0.04991967785783263 0.0021274885437215165 0.008197313169559574 -0.0034308161575286587 0.017749844570547617 -1.129871985463743 0.821005942646556 -1.0844019013642607 -0.9327451763228187 3.8812091962621214 0.3825979338101632 -1.176199073367701 -1.6625707171948032 -0.8172483338506251 1.0366985885769542 0.5226388337895431 -0.8089008505275394 0.9788015864823377 12.351437902652247 -3.0606122522197463 0.06324262268731598 -0.8772128674055903 -8.960103881372667 1.1880879449323394 -16.5710369118961 -0.721075903721125 -4.784644400890372 1.5814354494598795 -15.941681114675339 73.06021630352937 22.236973774452903 2.8507261634201164 1.5324623748787454 1.8838885930761056 42.32388433015553 20.41252163010225 -0.13352544974474845 -3.8082783018918698 4.533514555012177 -0.09130241157172009 -1.6048760935555177 -0.006875052888930812 0.02400864403020074 -56.20177566061285 0.0016437152657152476 0.025355451601514662 -56.25406810173849 -38.75436747908152 -0.017771280912603736 -0.039786189363504136 -0.02465966826150578 0.03108460580818278 0.006492190163154844 0.030737587003402726 -0.0021417858273089447 -0.044842221299291135 -36.6624422080073 -0.042189303434308704 -0.049213354367846095 -0.03412104392609359 -0.035154349480748054 0.013632559386573389 -0.04506673388026927 -0.0320256051992416 -0.002901867128371107 -19.727670965298625 0.03435304506010594 0.007315167002347497 -0.020381978163707862 0.044096897438400416 0.0055229446059267395 -0.019993941722191405 -0.03610795150304292 -0.009579838596847726 24.058247840777195 0.023822022864254565 0.006850241351918246 28.910207672458636 0.001732422907775458 -0.016449884698217673 28.86994575804748 -0.03094487896594802 -0.009376671170267394 3.53275860753798 0.9877985932109089 13.519269266329138 -72.17001613923793 27.33510765273162 0.20021680664898878 -1.1786857332307985 -9.069517994237005 -42.842701409970296 -13.868884765968506 -0.7866945412053803 3.1941626597709285 -0.5180430356074054 0.02213182637979414 -8.080615193753179 0.03766144538692446 0.037552064066441807 44.517734921938455 -0.04541428267381412 0.0208089828882368 44.6100897862921 12.440524194566608 -0.03196641313798463 -0.03262063536635349 0.04228324671845753 0.044339162055875854 0.0395897584829567 -0.019607953394586777 -0.03011170043802086 0.049143182531533866 11.069463414640769 -0.03412019193100168 0.0322804044405843 0.005877980525925704 0.011088967680702952 -0.038810709842400384 0.035978498416680854 0.021920389380567465 0.02713480372707343 4.8146810513807 -0.015886771096806633 0.038625099898115973 -0.00022806981633356017 0.02339385900296838 0.020084337469261988 -0.022854605661335542 -0.016715354854477893 -0.020117019675006714 -5.596861721008246 0.011120414276811614 -0.02066942715341332 -6.697776600490362 -0.0037527348528148706 -0.007518728408474898 -6.747417703901276 -0.006751182973785722 0.012766070462302083 0.025993230832390454 0.013494730956747168 0.04848730262975976 8.083795722253816 3.4595584132035344 -19.21581101846674 -0.04214379941179959 10.436753897985055 0.014103359866036093 -5.647842612444233 -15.665135360258848 3.2386087413489006 -0.01685414965360614 -0.0008916449331580463 -0.01681525546818431 -0.03987239156708055 4.67470071828494 0.01837465950262388 12.426815379167996 -8.219324961132754 6.896632803785139 -0.04034347267118985 46.34440470175563 0.024878585231303024 -4.30190663384352 -14.704143934295297 -3.8103180141518984 0.008257160425921777 0.024153653696961767 0.016841022616386963 -0.04356100967864639 -10.794714873338167 0.03195492490797529 
-0.017544553182192738 -0.0027269276153450194 0.02132506218658668 0.021709016683807245 -0.007750281865444006 0.0087581553725312 -1.1410626493121563 0.8665160102747953 -1.0523801556424557 -0.9042395442910318 3.94070265774293 0.3370191560823349 -1.2096187876123505 -1.6675421753910054 -0.8422026290190067 1.0467478736938698 0.5004541266126022 -0.7823853836375392 1.0337576258001486 12.240132109989236 -3.197470569617788 0.1053630932864516 -0.9480928516050082 -9.164189914151457 1.226858241062771 -16.763935217409497 -0.7778850598301886 -4.941999138250478 1.584096447937412 -16.05398382727425 72.92664593814204 21.947303474597373 2.0484513645319486 1.070923859816034 1.625674394378119 42.37857509178818 20.291167239575636 -0.13476931529209024 -3.8131145111202946 4.4998365952722015 -0.11940647945237451 -1.6124220277915218 -0.02519990603607402 0.04538527860416418 -56.26295271630846 0.008595410666809782 0.019977031103680584 -56.25972679983595 -38.77300624542172 0.00574353159734386 0.037851675762724545 -0.024938904455916282 -0.010045816507866368 -0.011173257967610676 0.013729881642490456 -0.009032615598804182 0.0027439604152002355 -36.708050350216496 0.0012227588969937638 0.04703588119515669 0.028046604760725045 0.024364007973608007 0.04761624145743662 0.009399263124493913 -0.008125934196168031 0.02953394284815958 -19.738679991948942 0.013255703154321848 0.02524410471904453 0.02758605052956251 0.00045592389387049325 -0.00523458092505349 -0.04698748380574978 -0.0038424750641690418 -0.004677058820673922 24.023256718099624 -0.03395793184098386 0.01565530477212009 28.863777201941076 0.023762779186799733 0.04559194328263408 28.8287896595215 -0.008587914358366892 -0.040211971471996066 3.5138529700956167 0.9623506865467528 13.55191216782242 -72.20897913731928 27.698406459646574 0.42424553540196297 -0.44884719228409103 -9.166331628080911 -42.64863577502833 -13.877912136248298 -0.7674237642824234 3.3791854279670437 -0.4679176130670424 0.08038118455753236 -8.124684061683164 -0.028090016276612742 -0.010806639260682548 44.58138831514803 0.0028647105781141745 -0.036104066501853424 44.56255831392839 12.485475298977361 0.030938973750296864 0.0005253959471830627 0.030535806764175482 -0.006904519759879773 -0.021494454938912264 -0.0366945938409738 -0.042916358306244996 -0.03727205701373953 11.100471644199033 -0.012357176820681303 0.0036614055792073435 0.0019309117528991775 -0.029783374629629895 0.023215350800965713 -0.005761411983306859 0.005356962665613687 -0.04126667788566811 4.786331252648513 0.01947992683263849 -0.013114472820674312 0.007580393966484935 0.0032778905301801727 0.04102916900383803 0.042439309523414834 -0.04980015301749216 -0.005500299090072013 -5.5516430105556775 -0.0009873321909760714 -0.04568390985633718 -6.726417545727192 0.007744219532576512 0.049524108634929176 -6.708411244783986 -0.03225371925216321 -0.0239187451140819 0.01717888803430061 -0.02956984582271856 0.0032315844072464445 8.025046161083463 3.5327786169425246 -19.217957039417065 0.0429947586810941 10.39978177530663 -0.020511512496663543 -5.645000325286229 -15.676668391523364 3.1776232616073283 -0.00013366815549633449 0.01871474996015422 -0.03686664423091243 -0.02454286105018614 4.680115184732342 -0.04502056231914377 12.424489700565468 -8.28390670207974 6.867381871682798 -0.04259146811141035 46.40501214181682 -0.013030873128979643 -4.311343786506138 -14.763214167404914 -3.7989906918755088 -0.02341291721345766 0.01878998858388873 0.02760955153580788 -0.013474504387938057 -10.76654503590013 -0.01203458510538409 
